<?xml version="1.0" standalone="no"?>
<svg version="1.0" xmlns="http://www.w3.org/2000/svg"
 width="300.000000pt" height="300.000000pt" viewBox="0 0 300.000000 300.000000"
 preserveAspectRatio="xMidYMid meet"
 fill="#EAAA00">
<g transform="translate(0.000000,300.000000) scale(0.050000,-0.050000)">
<path d="M2862 5240 c-62 -78 -67 -80 -189 -80 -71 0 -135 -10 -149 -24 -25
-25 -34 -248 -12 -304 33 -85 520 49 685 188 l47 39 -117 130 c-139 154 -176
161 -265 51z"/>
<path d="M3507 5220 c-23 -9 -82 -73 -130 -142 -167 -240 -406 -348 -829 -375
-282 -19 -354 -44 -391 -140 -50 -133 66 -216 273 -195 171 17 180 22 182 96
3 77 60 127 175 157 46 11 196 56 335 100 138 43 272 79 297 79 93 0 261 193
261 301 0 95 -85 154 -173 119z"/>
<path d="M3270 4671 c-77 -25 -237 -75 -355 -112 -235 -73 -241 -79 -193 -216
33 -95 81 -112 199 -73 115 39 148 83 119 160 -29 77 -26 84 43 108 96 33 108
28 142 -58 37 -92 71 -100 221 -48 113 38 129 78 76 197 -46 105 -54 107 -252
42z m187 -82 c33 -74 35 -72 -110 -117 -37 -12 -87 57 -87 120 0 8 118 43 152
46 12 1 32 -21 45 -49z m-478 -202 c1 -22 -99 -67 -150 -67 -80 0 -66 118 17
146 86 29 131 2 133 -79z"/>
<path d="M3126 4367 c2 -86 -63 -153 -181 -186 -153 -42 -224 -16 -298 110
-12 22 -29 33 -37 25 -54 -52 152 -236 264 -236 37 0 92 -13 122 -28 120 -62
325 33 404 188 51 101 52 99 -29 86 -98 -16 -169 8 -195 65 -32 70 -52 61 -50
-24z"/>
<path d="M4600 4255 c-61 -26 -231 -118 -377 -205 l-267 -158 52 -38 c122 -88
182 -260 114 -322 -52 -47 -94 -23 -199 117 -100 131 -162 167 -320 184 -133
14 -170 -11 -93 -61 76 -50 61 -106 -76 -281 -180 -230 -370 -278 -517 -131
l-57 57 0 -174 0 -174 175 -109 c544 -338 514 -271 389 -895 l-37 -185 93 0
c135 0 190 -88 103 -167 -56 -51 -262 -45 -330 8 -66 52 -66 57 8 466 69 379
69 376 -35 432 -262 141 -509 320 -531 385 -5 16 -26 11 -66 -17 -50 -35 -316
-200 -585 -362 -105 -63 -90 -70 -414 210 -614 531 -550 499 -735 375 -178
-120 -197 -48 219 -846 l148 -285 -65 -85 c-37 -46 -159 -200 -272 -341 -200
-250 -229 -313 -141 -313 146 0 332 127 658 453 351 349 401 380 441 269 16
-44 -1 -68 -169 -235 -102 -103 -183 -187 -178 -187 4 0 216 45 471 99 255 55
538 112 629 128 203 35 172 -6 246 324 79 354 101 409 165 409 82 0 95 -37 62
-181 -40 -171 -213 -876 -303 -1235 -50 -199 -66 -292 -51 -307 27 -27 226 13
335 68 226 113 241 131 822 975 389 565 268 459 1106 968 377 230 512 425 512
742 -1 477 -494 808 -930 625z m459 -180 c105 -53 146 -110 101 -137 -626
-379 -668 -390 -748 -197 -87 211 399 461 647 334z m241 -457 c0 -231 -82
-351 -351 -513 -181 -109 -165 -114 -261 90 l-83 175 84 31 c103 40 472 265
521 319 69 76 90 52 90 -102z m-1461 -91 c6 -5 -2 -17 -17 -26 -21 -13 -7 -44
65 -137 l92 -119 91 46 c341 172 632 -293 366 -584 -25 -28 -32 -47 -18 -56
34 -21 26 -44 -29 -80 -40 -26 -58 -29 -80 -10 -22 18 -47 16 -109 -9 -45 -17
-121 -32 -170 -32 l-90 0 0 80 c0 78 2 80 69 80 38 0 92 10 119 23 l50 23 -92
117 c-106 135 -93 129 -170 74 -326 -232 -670 281 -389 579 59 63 258 82 312
31z m-2479 -759 c583 -501 551 -494 977 -233 157 96 269 152 305 152 74 0 143
-60 120 -105 -9 -17 -37 -116 -62 -219 -62 -253 -78 -268 -347 -320 -247 -48
-240 -50 -295 66 -120 256 -258 286 -485 107 -127 -100 -99 -128 -332 340
-272 547 -272 547 119 212z m2540 -469 c0 -44 -180 -282 -208 -273 -43 14 -27
339 24 471 13 36 183 -147 184 -198z m-675 -816 c88 -55 75 -106 -55 -220
-103 -90 -117 -83 -105 52 12 124 46 232 70 221 8 -4 49 -28 90 -53z"/>
<path d="M3643 3375 c-78 -78 -6 -255 103 -255 120 1 123 24 18 156 -74 91
-104 116 -121 99z"/>
<path d="M4145 3087 c-40 -17 -30 -41 57 -153 102 -129 106 -130 139 -52 52
125 -74 257 -196 205z"/>
<path d="M1446 4006 c-44 -114 68 -474 203 -651 208 -273 657 -348 948 -160
l83 54 0 311 c0 264 6 323 37 385 51 99 77 95 -639 95 -562 0 -620 -3 -632
-34z m538 -109 c6 -17 19 -17 51 0 78 42 145 29 145 -27 0 -40 -10 -50 -49
-50 -71 0 -79 -31 -26 -108 35 -52 54 -65 76 -51 169 107 364 -147 237 -309
-23 -29 -37 -66 -31 -82 14 -37 -52 -77 -81 -48 -13 13 -38 12 -74 -1 -97 -37
-135 -28 -128 32 4 34 20 55 43 59 92 13 97 25 41 95 -50 63 -58 66 -120 47
-180 -55 -312 151 -207 323 23 37 36 72 30 78 -16 16 29 65 60 65 14 0 29 -10
33 -23z"/>
<path d="M1954 3727 c-25 -24 -15 -101 16 -127 30 -25 91 -15 89 14 -1 30 -91
127 -105 113z"/>
<path d="M2242 3541 c-21 -13 -16 -32 22 -89 54 -79 76 -76 76 11 0 61 -55
105 -98 78z"/>
<path d="M2860 3889 c0 -117 29 -133 117 -63 46 38 226 31 307 -11 95 -49 116
-34 116 77 0 110 -33 128 -131 70 -55 -33 -80 -37 -110 -21 -26 13 -52 14 -74
2 -24 -14 -56 -8 -109 19 -108 55 -116 50 -116 -73z"/>
<path d="M3011 3742 c-6 -11 -38 -25 -71 -32 -76 -17 -76 -14 23 -131 115
-136 181 -137 295 -4 45 52 82 100 82 106 0 52 -300 107 -329 61z"/>
<path d="M4247 2119 c-97 -143 -186 -273 -196 -289 -51 -74 143 -190 319 -190
404 0 542 560 177 713 -107 44 -115 38 -300 -234z m273 -109 c0 -55 -63 -130
-110 -130 -46 0 -36 64 21 125 63 68 89 70 89 5z"/>
<path d="M2149 1531 c-18 -27 -37 -86 -43 -130 -6 -45 -18 -81 -25 -81 -31 0
-105 100 -95 128 34 88 -91 78 -155 -13 -56 -80 -27 -190 37 -137 23 19 92 -4
210 -73 34 -19 -51 -60 -107 -51 -86 14 -114 -27 -52 -77 69 -56 168 -48 225
19 36 44 64 56 124 56 86 0 172 76 172 152 0 23 15 52 33 66 40 29 20 70 -34
70 -22 0 -39 12 -39 27 0 94 -196 129 -251 44z m170 -110 c28 -52 26 -73 -10
-110 -56 -55 -89 -38 -89 46 0 109 56 145 99 64z"/>
<path d="M1393 1390 c-41 -41 -41 -69 -1 -127 69 -98 226 7 160 107 -34 51
-118 62 -159 20z"/>
<path d="M1347 1124 c-78 -36 -95 -90 -49 -147 41 -50 108 -42 176 21 89 84
-10 182 -127 126z"/>
<path d="M830 972 c-161 -94 -181 -112 -186 -168 -12 -116 66 -126 230 -31 75
43 161 91 192 107 64 32 87 98 55 158 -34 64 -93 50 -291 -66z"/>
<path d="M1619 935 c-47 -51 -48 -73 -7 -132 43 -61 127 -51 167 21 54 97 -83
193 -160 111z"/>
</g>
</svg>
